# Blender 3.6.5
# www.blender.org
mtllib fireflyExtended.mtl
o Sphere
v 0.293893 1.876124 -2.291157
v 0.379187 1.382554 -3.126337
v 0.437848 1.010099 -3.207076
v 0.379187 0.637643 -3.126337
v 0.293893 0.144073 -2.291157
v 0.475528 1.876124 -2.041157
v 0.823639 1.510099 -2.154265
v 0.951057 1.010099 -2.195665
v 0.823639 0.510099 -2.154265
v 0.475528 0.144073 -2.041157
v 0.475528 1.876124 0.154508
v 0.823639 1.510099 0.267617
v 0.951057 1.010099 0.309017
v 0.823639 0.510099 0.267617
v 0.475528 0.144073 0.154508
v 0.293893 1.876124 0.404509
v 0.509037 1.510099 0.700629
v 0.587785 1.010099 0.809017
v 0.509037 0.510099 0.700629
v 0.293893 0.144073 0.404509
v 0.000000 1.876124 0.500000
v 0.000000 1.510099 0.866025
v 0.000000 1.010099 1.000000
v 0.000000 0.510099 0.866025
v 0.000000 0.144073 0.500000
v -0.293893 1.876124 0.404509
v -0.509037 1.510099 0.700629
v -0.587785 1.010099 0.809017
v -0.509037 0.510099 0.700629
v -0.293893 0.144073 0.404509
v 0.000000 2.010098 0.000000
v -0.475528 1.876124 0.154509
v -0.823639 1.510099 0.267617
v -0.951057 1.010099 0.309017
v -0.823639 0.510099 0.267617
v -0.475528 0.144073 0.154509
v 0.000000 0.010099 0.000000
v -0.475528 1.876124 -2.041157
v -0.823639 1.510099 -2.154265
v -0.951057 1.010099 -2.195665
v -0.823639 0.510099 -2.154265
v -0.475528 0.144073 -2.041157
v -0.293893 1.876124 -2.291157
v -0.379187 1.382554 -3.126337
v -0.437848 1.010099 -3.207076
v -0.379187 0.637643 -3.126337
v -0.293893 0.144073 -2.291157
v -0.000000 1.876124 -2.386648
v -0.000000 1.382554 -3.249542
v -0.000000 0.637643 -3.249542
v -0.000000 0.144073 -2.386648
v 0.484382 1.485881 -4.784085
v 0.559316 1.010099 -4.887223
v 0.484382 0.534316 -4.784085
v -0.484382 1.485881 -4.784085
v -0.559316 1.010099 -4.887224
v -0.484382 0.534316 -4.784085
v -0.000000 1.485881 -4.941471
v -0.000000 1.010099 -5.068956
v -0.000000 0.534316 -4.941471
v 0.861433 1.010099 -4.525173
v 0.861433 1.010099 -3.717919
v 0.746023 0.277320 -3.559072
v 0.746023 0.277320 -4.366325
v -0.861434 1.010099 -4.525173
v -0.861434 1.010099 -3.717920
v -0.431904 1.742877 -3.991419
v -0.431904 1.742877 -4.138104
v -0.000000 1.742877 -4.131753
v -0.000000 1.742877 -4.278438
v 0.431904 1.742877 -3.991419
v 0.431904 1.742877 -4.138104
v -0.746023 0.277320 -3.559072
v -0.746023 0.277320 -4.366325
v -0.000000 0.277320 -4.608722
v -0.000000 0.277320 -3.801469
v 0.405945 1.212662 -3.163165
v 0.425498 1.088510 -3.190078
v 0.881759 1.282028 -2.173149
v 0.924232 1.115362 -2.186949
v 0.881759 1.282028 0.286501
v 0.924232 1.115362 0.300301
v 0.544957 1.282028 0.750069
v 0.571207 1.115362 0.786199
v 0.000000 1.282028 0.927137
v 0.000000 1.115362 0.971795
v -0.544957 1.282028 0.750069
v -0.571207 1.115362 0.786199
v -0.881759 1.282028 0.286501
v -0.924232 1.115362 0.300301
v -0.881759 1.282028 -2.173149
v -0.924232 1.115362 -2.186949
v -0.405945 1.212662 -3.163165
v -0.425498 1.088510 -3.190078
v 0.518562 1.268857 -4.831131
v 0.543540 1.110263 -4.865510
v -0.518562 1.268857 -4.831131
v -0.543540 1.110263 -4.865510
v -0.000000 1.268857 -4.999622
v -0.000000 1.110263 -5.042117
v 0.837136 1.164368 -3.684478
v 0.798666 1.408628 -3.631529
v 0.837136 1.164368 -4.491732
v 0.798666 1.408628 -4.438782
v -0.798666 1.408628 -3.631529
v -0.837137 1.164368 -3.684478
v -0.798666 1.408628 -4.438782
v -0.837137 1.164368 -4.491732
v -2.176531 2.803065 0.300301
v -2.203356 2.697802 0.309017
v -1.660715 2.803065 -1.199199
v -1.687539 2.697802 -1.207915
v 1.795690 2.803065 -1.170609
v 1.822515 2.697802 -1.179325
v 2.205003 2.803065 0.300301
v 2.231828 2.697802 0.309017
v -0.746023 1.742877 -3.559072
v -0.746023 1.742877 -4.366325
v 0.746023 1.742877 -3.559072
v 0.746023 1.742877 -4.366325
v -0.000000 1.742877 -3.801469
v -0.000000 1.742877 -4.608722
v 0.131424 0.637643 -3.206840
v 0.131424 1.382554 -3.206840
v 0.101861 1.876124 -2.353551
v 0.101861 0.144073 -2.353551
v 0.167883 0.534316 -4.886922
v 0.193855 1.010099 -5.005969
v 0.167883 1.485881 -4.886922
v 0.258567 0.277320 -3.717456
v 0.258567 0.277320 -4.524709
v 0.258567 1.742877 -3.717456
v 0.258567 1.742877 -4.524709
v 0.188387 1.110263 -4.980906
v 0.179730 1.268857 -4.941224
v 0.149695 1.742877 -4.083114
v 0.149695 1.742877 -4.229799
v -0.130348 0.637643 -3.207189
v -0.130348 1.382554 -3.207189
v -0.101028 1.876124 -2.353822
v -0.101028 0.144073 -2.353822
v -0.166509 0.534316 -4.887368
v -0.192269 1.010099 -5.006485
v -0.166509 1.485881 -4.887368
v -0.256450 0.277320 -3.718143
v -0.256450 0.277320 -4.525396
v -0.256450 1.742877 -3.718143
v -0.256450 1.742877 -4.525396
v -0.186846 1.110263 -4.981407
v -0.178259 1.268857 -4.941702
v -0.148470 1.742877 -4.083512
v -0.148470 1.742877 -4.230197
v -0.245386 2.221973 -3.717427
v -0.245386 2.221973 -3.755682
v 0.414760 2.221973 -3.712717
v 0.414760 2.221973 -3.756587
v -0.171468 2.221973 -3.741445
v -0.171468 2.221973 -3.779699
v 0.330358 2.221973 -3.740141
v 0.330358 2.221973 -3.784011
vn 0.1948 0.7763 -0.5995
vn 0.1593 0.8570 -0.4902
vn 0.1593 -0.8570 -0.4902
vn -0.1948 0.7763 -0.5995
vn 0.0182 0.9983 -0.0560
vn 0.0182 -0.9983 -0.0560
vn 0.5862 -0.6892 -0.4259
vn 0.8704 0.2313 -0.4346
vn 0.0682 0.9964 -0.0495
vn 0.0682 -0.9964 -0.0495
vn 0.8659 -0.2562 -0.4295
vn 0.5912 0.7193 -0.3647
vn 0.7246 -0.6892 -0.0000
vn 0.9690 0.2469 -0.0000
vn 0.2712 0.9625 -0.0000
vn 0.2712 -0.9625 -0.0000
vn 0.9690 -0.2469 -0.0000
vn 0.7246 0.6892 -0.0000
vn 0.5862 -0.6892 0.4259
vn 0.7840 0.2469 0.5696
vn 0.2194 0.9625 0.1594
vn 0.2194 -0.9625 0.1594
vn 0.7840 -0.2469 0.5696
vn 0.5862 0.6892 0.4259
vn 0.2994 0.2469 0.9216
vn 0.0838 0.9625 0.2579
vn 0.0838 -0.9625 0.2579
vn 0.2994 -0.2469 0.9216
vn 0.2239 0.6892 0.6892
vn 0.2239 -0.6892 0.6892
vn -0.0838 0.9625 0.2579
vn -0.0838 -0.9625 0.2579
vn -0.2994 -0.2469 0.9216
vn -0.2239 0.6892 0.6892
vn -0.2239 -0.6892 0.6892
vn -0.2994 0.2469 0.9216
vn -0.2194 -0.9625 0.1594
vn -0.7840 -0.2469 0.5696
vn -0.5862 0.6892 0.4259
vn -0.5862 -0.6892 0.4259
vn -0.7840 0.2469 0.5696
vn -0.2194 0.9625 0.1594
vn -0.2712 -0.9625 -0.0000
vn -0.9690 -0.2469 -0.0000
vn -0.7246 0.6892 -0.0000
vn -0.7246 -0.6892 -0.0000
vn -0.9690 0.2469 -0.0000
vn -0.2712 0.9625 -0.0000
vn -0.0682 -0.9964 -0.0495
vn -0.8659 -0.2562 -0.4295
vn -0.5912 0.7193 -0.3647
vn -0.5862 -0.6892 -0.4259
vn -0.8704 0.2313 -0.4346
vn -0.0682 0.9964 -0.0495
vn 0.7431 -0.2515 -0.6201
vn -0.1593 0.8570 -0.4902
vn -0.1593 -0.8570 -0.4902
vn -0.7431 0.2515 -0.6201
vn -0.0182 0.9983 -0.0560
vn -0.0182 -0.9983 -0.0560
vn 0.2994 -0.2469 -0.9216
vn 0.2994 0.2469 -0.9216
vn -0.2994 -0.2469 -0.9216
vn -0.2994 0.2469 -0.9216
vn -0.1948 -0.7763 -0.5995
vn -0.7431 -0.2515 -0.6201
vn 0.1948 -0.7763 -0.5995
vn 0.7431 0.2515 -0.6201
vn 0.7697 -0.0171 0.6382
vn 0.9878 0.1556 -0.0000
vn -0.1749 -0.8244 0.5382
vn -0.0000 -1.0000 -0.0000
vn -0.7697 0.0171 0.6382
vn -0.9878 -0.1556 -0.0000
vn 0.1749 -0.8244 0.5382
vn -0.7697 -0.0171 0.6382
vn -0.9878 0.1556 -0.0000
vn 0.7697 0.0171 0.6382
vn 0.9878 -0.1556 -0.0000
vn 0.1749 0.8244 0.5382
vn -0.0000 1.0000 -0.0000
vn -0.1749 0.8244 0.5382
vn 0.2574 -0.5533 0.7922
vn -0.8674 0.2320 -0.4401
vn -0.8686 0.2318 -0.4380
vn 0.7741 0.5744 0.2663
vn -0.0813 0.0617 0.9948
vn 0.8674 0.2320 -0.4401
vn 0.8686 0.2318 -0.4380
vn -0.9257 0.2098 -0.3148
vn -0.5746 0.2119 -0.7905
vn -0.9165 -0.4000 -0.0000
vn 0.0826 0.0613 0.9947
vn 0.9409 0.2184 -0.2588
vn 0.7781 -0.5905 -0.2140
vn -0.8885 0.4588 -0.0000
vn 0.5466 0.2065 -0.8115
vn 0.2450 0.6093 -0.7541
vn -0.9319 0.3628 -0.0000
vn -0.9357 0.3528 -0.0000
vn 0.9988 0.0479 -0.0000
vn -0.2691 -0.4915 0.8283
vn -0.2320 0.6604 -0.7142
vn 0.9994 0.0358 -0.0000
vn 0.5912 -0.7193 -0.3647
vn 0.8659 0.2562 -0.4295
vn 0.8674 -0.2320 -0.4401
vn 0.5862 0.6892 -0.4259
vn -0.8674 -0.2320 -0.4401
vn -0.5862 0.6892 -0.4259
vn -0.5912 -0.7193 -0.3647
vn -0.8659 0.2562 -0.4295
vn -0.8629 0.2560 -0.4358
vn -0.8641 0.2561 -0.4333
vn 0.9165 0.4000 -0.0000
vn 0.8629 0.2560 -0.4358
vn 0.8641 0.2561 -0.4333
vn -0.9134 0.2588 -0.3142
vn -0.7747 -0.5748 -0.2634
vn 0.9306 0.2586 -0.2590
vn 0.8885 -0.4588 -0.0000
vn -0.7777 0.5902 0.2164
vt 0.665341 0.666667
vt 0.600000 0.666667
vt 0.665341 0.666667
vt 0.665341 0.833333
vt 0.665341 0.166667
vt 0.600000 0.333333
vt 0.600000 0.166667
vt 0.700000 0.666667
vt 0.734376 0.666667
vt 0.650000 1.000000
vt 0.700000 0.833333
vt 0.650000 0.000000
vt 0.500000 0.333333
vt 0.500000 0.166667
vt 0.500000 0.590643
vt 0.600000 0.590643
vt 0.600000 0.833333
vt 0.550000 1.000000
vt 0.500000 0.833333
vt 0.550000 0.000000
vt 0.500000 0.500000
vt 0.500000 0.666667
vt 0.400000 0.166667
vt 0.400000 0.590643
vt 0.450000 1.000000
vt 0.400000 0.833333
vt 0.450000 0.000000
vt 0.400000 0.333333
vt 0.400000 0.666667
vt 0.300000 0.333333
vt 0.300000 0.166667
vt 0.300000 0.590643
vt 0.350000 1.000000
vt 0.300000 0.833333
vt 0.350000 0.000000
vt 0.300000 0.500000
vt 0.300000 0.666667
vt 0.200000 0.590643
vt 0.250000 1.000000
vt 0.200000 0.833333
vt 0.250000 0.000000
vt 0.200000 0.166667
vt 0.200000 0.333333
vt 0.200000 0.666667
vt 0.150000 1.000000
vt 0.100000 0.833333
vt 0.150000 0.000000
vt 0.100000 0.166667
vt 0.100000 0.500000
vt 0.100000 0.333333
vt 0.100000 0.666667
vt 0.100000 0.590643
vt 0.050000 0.000000
vt 0.000000 0.166667
vt 0.000000 0.500000
vt 0.000000 0.333333
vt 0.000000 0.666667
vt 0.000000 0.590643
vt 0.050000 1.000000
vt 0.000000 0.833333
vt 0.950000 0.000000
vt 1.000000 0.166667
vt 0.900000 0.166667
vt 1.000000 0.333333
vt 0.900000 0.500000
vt 0.900000 0.333333
vt 1.000000 0.833333
vt 0.900000 0.666667
vt 1.000000 0.666667
vt 0.900000 0.590643
vt 1.000000 0.590643
vt 0.950000 1.000000
vt 0.900000 0.833333
vt 0.850000 0.000000
vt 0.800000 0.166667
vt 0.800000 0.333333
vt 0.800000 0.833333
vt 0.800000 0.666667
vt 0.800000 0.590643
vt 0.850000 1.000000
vt 0.600000 0.500000
vt 0.600000 0.500000
vt 0.734376 0.666667
vt 0.700000 0.666667
vt 0.734376 0.333333
vt 0.700000 0.166667
vt 0.734376 0.166667
vt 0.800000 0.590643
vt 0.750000 1.000000
vt 0.734376 0.833333
vt 0.750000 0.000000
vt 0.665341 0.500000
vt 0.665341 0.333333
vt 0.665341 0.590643
vt 0.734376 0.500000
vt 0.700000 0.333333
vt 0.734376 0.333333
vt 0.734376 0.590643
vt 0.700000 0.590643
vt 0.800000 0.500000
vt 0.800000 0.333333
vt 0.700000 0.333333
vt 0.665341 0.333333
vt 0.600000 0.535088
vt 0.600000 0.535088
vt 0.665341 0.333333
vt 0.700000 0.333333
vt 0.800000 0.500000
vt 0.800000 0.333333
vt 0.734376 0.333333
vt 0.800000 0.666667
vt 0.600000 0.333333
vt 0.719901 0.666667
vt 0.757894 0.666667
vt 0.800000 0.535088
vt 0.800000 0.500000
vt 0.800000 0.535088
vt 0.600000 0.590643
vt 0.600000 0.666667
vt 0.700000 0.535088
vt 0.700000 0.500000
vt 0.734376 0.535088
vt 0.665341 0.535088
vt 0.900000 0.535088
vt 1.000000 0.535088
vt 0.100000 0.535088
vt 0.000000 0.535088
vt 0.200000 0.535088
vt 0.200000 0.500000
vt 0.300000 0.535088
vt 0.400000 0.535088
vt 0.400000 0.500000
vt 0.500000 0.535088
vt 1.000000 0.500000
vt 0.642106 0.666667
vt 0.642106 0.666667
vt 0.679934 0.666667
vt 0.700000 0.666667
vt 0.600000 0.333333
vt 0.757894 0.666667
s 0
f 133/1/1 52/2/1 129/3/1
f 125/4/2 2/2/2 124/3/2
f 126/5/3 4/6/3 5/7/3
f 122/8/4 144/9/4 148/9/4
f 31/10/5 125/4/5 48/11/5
f 37/12/6 126/5/6 5/7/6
f 5/7/7 9/13/7 10/14/7
f 2/2/8 79/15/8 77/16/8
f 1/17/9 31/18/9 6/19/9
f 37/20/10 5/7/10 10/14/10
f 4/6/11 8/21/11 9/13/11
f 1/17/12 7/22/12 2/2/12
f 9/13/13 15/23/13 10/14/13
f 7/22/14 81/24/14 79/15/14
f 6/19/15 31/25/15 11/26/15
f 37/27/16 10/14/16 15/23/16
f 8/21/17 14/28/17 9/13/17
f 7/22/18 11/26/18 12/29/18
f 15/23/19 19/30/19 20/31/19
f 12/29/20 83/32/20 81/24/20
f 11/26/21 31/33/21 16/34/21
f 37/35/22 15/23/22 20/31/22
f 14/28/23 18/36/23 19/30/23
f 11/26/24 17/37/24 12/29/24
f 17/37/25 85/38/25 83/32/25
f 16/34/26 31/39/26 21/40/26
f 37/41/27 20/31/27 25/42/27
f 18/36/28 24/43/28 19/30/28
f 17/37/29 21/40/29 22/44/29
f 20/31/30 24/43/30 25/42/30
f 21/40/31 31/45/31 26/46/31
f 37/47/32 25/42/32 30/48/32
f 24/43/33 28/49/33 29/50/33
f 21/40/34 27/51/34 22/44/34
f 24/43/35 30/48/35 25/42/35
f 22/44/36 87/52/36 85/38/36
f 37/53/37 30/48/37 36/54/37
f 29/50/38 34/55/38 35/56/38
f 26/46/39 33/57/39 27/51/39
f 29/50/40 36/54/40 30/48/40
f 27/51/41 89/58/41 87/52/41
f 26/46/42 31/59/42 32/60/42
f 37/61/43 36/62/43 42/63/43
f 35/64/44 40/65/44 41/66/44
f 32/67/45 39/68/45 33/69/45
f 35/64/46 42/63/46 36/62/46
f 33/69/47 91/70/47 89/71/47
f 32/67/48 31/72/48 38/73/48
f 37/74/49 42/63/49 47/75/49
f 40/65/50 46/76/50 41/66/50
f 39/68/51 43/77/51 44/78/51
f 41/66/52 47/75/52 42/63/52
f 91/70/53 44/78/53 93/79/53
f 38/73/54 31/80/54 43/77/54
f 61/81/55 54/6/55 53/82/55
f 139/83/56 48/11/56 49/84/56
f 138/85/57 51/86/57 141/87/57
f 107/88/58 55/78/58 97/88/58
f 31/89/59 140/90/59 43/77/59
f 37/91/60 141/87/60 51/86/60
f 128/92/61 54/6/61 127/93/61
f 135/94/62 52/2/62 95/16/62
f 143/95/63 60/96/63 142/97/63
f 150/98/64 58/84/64 99/99/64
f 146/97/65 57/76/65 142/97/65
f 65/100/66 57/76/66 74/101/66
f 75/102/67 127/93/67 131/103/67
f 61/81/68 96/104/68 103/104/68
f 3/82/69 101/104/69 78/105/69
f 62/81/70 103/104/70 101/104/70
f 50/96/71 130/106/71 123/93/71
f 76/107/72 131/103/72 130/106/72
f 46/76/73 66/108/73 73/109/73
f 66/108/74 74/101/74 73/109/74
f 46/76/75 145/110/75 138/85/75
f 145/110/72 74/101/72 146/97/72
f 44/78/76 105/88/76 93/79/76
f 105/88/77 118/111/77 107/88/77
f 4/6/78 62/81/78 3/82/78
f 62/81/79 64/112/79 61/81/79
f 49/84/80 147/83/80 139/83/80
f 69/84/81 152/113/81 151/113/81
f 2/2/82 132/3/82 124/3/82
f 67/114/83 157/113/83 153/114/83
f 66/108/77 108/115/77 65/100/77
f 106/115/77 107/88/77 108/115/77
f 45/116/76 106/115/76 66/108/76
f 94/117/76 105/88/76 106/115/76
f 102/118/70 120/119/70 119/119/70
f 101/104/70 104/118/70 102/118/70
f 2/2/69 102/118/69 119/119/69
f 78/105/69 102/118/69 77/16/69
f 104/118/68 52/2/68 120/119/68
f 103/104/68 95/16/68 104/118/68
f 143/95/64 100/120/64 59/121/64
f 149/122/64 99/99/64 100/120/64
f 128/92/62 96/104/62 53/82/62
f 134/123/62 95/16/62 96/104/62
f 65/100/58 98/115/58 56/116/58
f 108/115/58 97/88/58 98/115/58
f 40/65/84 94/117/84 45/116/84
f 92/124/85 93/79/85 94/117/85
f 90/125/86 111/124/86 109/125/86
f 89/71/47 92/124/47 90/125/47
f 88/126/41 34/55/41 28/49/41
f 87/52/41 90/127/41 88/126/41
f 86/128/36 28/49/36 23/129/36
f 85/38/36 88/126/36 86/128/36
f 84/130/25 23/129/25 18/36/25
f 83/32/25 86/128/25 84/130/25
f 82/131/20 18/36/20 13/132/20
f 81/24/20 84/130/20 82/131/20
f 82/131/87 116/132/87 115/131/87
f 79/15/14 82/131/14 80/133/14
f 78/105/88 8/21/88 3/82/88
f 77/16/89 80/133/89 78/105/89
f 109/125/90 112/65/90 110/134/90
f 92/124/91 112/65/91 111/124/91
f 34/134/92 112/65/92 40/65/92
f 90/127/93 110/55/93 34/55/93
f 114/21/94 115/131/94 116/132/94
f 13/132/95 114/21/95 116/132/95
f 82/131/96 113/133/96 80/133/96
f 80/133/97 114/21/97 8/21/97
f 67/114/81 118/111/81 117/111/81
f 71/135/81 120/119/81 72/136/81
f 67/114/81 147/83/81 151/113/81
f 70/84/81 148/9/81 152/113/81
f 136/137/81 121/138/81 132/3/81
f 72/136/81 133/1/81 137/137/81
f 70/84/81 133/1/81 122/8/81
f 71/135/81 132/3/81 119/119/81
f 99/99/62 134/123/62 100/120/62
f 100/120/62 128/92/62 59/121/62
f 69/84/81 137/137/81 70/84/81
f 49/84/82 132/3/82 121/138/82
f 130/106/72 64/112/72 63/139/72
f 4/6/71 130/106/71 63/139/71
f 131/103/67 54/6/67 64/112/67
f 58/84/62 135/94/62 99/99/62
f 60/96/61 128/92/61 127/93/61
f 51/86/3 123/93/3 126/5/3
f 48/11/2 124/3/2 49/84/2
f 122/8/1 129/3/1 58/84/1
f 68/140/81 148/9/81 118/111/81
f 151/113/81 121/138/81 69/84/81
f 97/88/64 149/122/64 98/115/64
f 98/115/64 143/95/64 56/116/64
f 72/136/98 160/137/98 156/136/98
f 44/78/80 147/83/80 117/111/80
f 76/107/72 146/97/72 75/102/72
f 50/96/75 145/110/75 76/107/75
f 75/102/65 142/97/65 60/96/65
f 55/78/64 150/98/64 97/88/64
f 57/76/63 143/95/63 142/97/63
f 46/76/57 141/87/57 47/75/57
f 44/78/56 140/90/56 139/83/56
f 148/9/4 55/78/4 118/111/4
f 159/137/81 156/136/81 160/137/81
f 157/113/81 154/140/81 153/114/81
f 67/114/99 154/140/99 68/140/99
f 136/137/100 160/137/100 137/137/100
f 151/113/101 158/113/101 157/113/101
f 71/135/102 159/137/102 136/137/102
f 68/140/103 158/113/103 152/113/103
f 71/135/104 156/136/104 155/135/104
f 133/1/1 120/119/1 52/2/1
f 125/4/2 1/17/2 2/2/2
f 126/5/3 123/93/3 4/6/3
f 122/8/4 58/84/4 144/9/4
f 31/10/5 1/17/5 125/4/5
f 37/12/6 51/86/6 126/5/6
f 5/7/105 4/6/105 9/13/105
f 2/2/106 7/22/106 79/15/106
f 4/6/107 3/82/107 8/21/107
f 1/17/108 6/19/108 7/22/108
f 9/13/13 14/28/13 15/23/13
f 7/22/14 12/29/14 81/24/14
f 8/21/17 13/132/17 14/28/17
f 7/22/18 6/19/18 11/26/18
f 15/23/19 14/28/19 19/30/19
f 12/29/20 17/37/20 83/32/20
f 14/28/23 13/132/23 18/36/23
f 11/26/24 16/34/24 17/37/24
f 17/37/25 22/44/25 85/38/25
f 18/36/28 23/129/28 24/43/28
f 17/37/29 16/34/29 21/40/29
f 20/31/30 19/30/30 24/43/30
f 24/43/33 23/129/33 28/49/33
f 21/40/34 26/46/34 27/51/34
f 24/43/35 29/50/35 30/48/35
f 22/44/36 27/51/36 87/52/36
f 29/50/38 28/49/38 34/55/38
f 26/46/39 32/60/39 33/57/39
f 29/50/40 35/56/40 36/54/40
f 27/51/41 33/57/41 89/58/41
f 35/64/44 34/134/44 40/65/44
f 32/67/45 38/73/45 39/68/45
f 35/64/46 41/66/46 42/63/46
f 33/69/47 39/68/47 91/70/47
f 40/65/109 45/116/109 46/76/109
f 39/68/110 38/73/110 43/77/110
f 41/66/111 46/76/111 47/75/111
f 91/70/112 39/68/112 44/78/112
f 61/81/55 64/112/55 54/6/55
f 139/83/56 140/90/56 48/11/56
f 138/85/57 50/96/57 51/86/57
f 107/88/58 118/111/58 55/78/58
f 31/89/59 48/11/59 140/90/59
f 37/91/60 47/75/60 141/87/60
f 128/92/61 53/82/61 54/6/61
f 135/94/62 129/3/62 52/2/62
f 143/95/63 59/121/63 60/96/63
f 150/98/64 144/9/64 58/84/64
f 146/97/65 74/101/65 57/76/65
f 65/100/66 56/116/66 57/76/66
f 75/102/67 60/96/67 127/93/67
f 61/81/68 53/82/68 96/104/68
f 3/82/69 62/81/69 101/104/69
f 62/81/70 61/81/70 103/104/70
f 50/96/71 76/107/71 130/106/71
f 76/107/72 75/102/72 131/103/72
f 46/76/73 45/116/73 66/108/73
f 66/108/74 65/100/74 74/101/74
f 46/76/75 73/109/75 145/110/75
f 145/110/72 73/109/72 74/101/72
f 44/78/76 117/111/76 105/88/76
f 105/88/77 117/111/77 118/111/77
f 4/6/78 63/139/78 62/81/78
f 62/81/79 63/139/79 64/112/79
f 49/84/80 121/138/80 147/83/80
f 69/84/81 70/84/81 152/113/81
f 2/2/82 119/119/82 132/3/82
f 67/114/83 151/113/83 157/113/83
f 66/108/77 106/115/77 108/115/77
f 106/115/77 105/88/77 107/88/77
f 45/116/76 94/117/76 106/115/76
f 94/117/76 93/79/76 105/88/76
f 102/118/70 104/118/70 120/119/70
f 101/104/70 103/104/70 104/118/70
f 2/2/69 77/16/69 102/118/69
f 78/105/69 101/104/69 102/118/69
f 104/118/68 95/16/68 52/2/68
f 103/104/68 96/104/68 95/16/68
f 143/95/64 149/122/64 100/120/64
f 149/122/64 150/98/64 99/99/64
f 128/92/62 134/123/62 96/104/62
f 134/123/62 135/94/62 95/16/62
f 65/100/58 108/115/58 98/115/58
f 108/115/58 107/88/58 97/88/58
f 40/65/113 92/124/113 94/117/113
f 92/124/114 91/70/114 93/79/114
f 90/125/115 92/124/115 111/124/115
f 89/71/47 91/70/47 92/124/47
f 88/126/41 90/127/41 34/55/41
f 87/52/41 89/58/41 90/127/41
f 86/128/36 88/126/36 28/49/36
f 85/38/36 87/52/36 88/126/36
f 84/130/25 86/128/25 23/129/25
f 83/32/25 85/38/25 86/128/25
f 82/131/20 84/130/20 18/36/20
f 81/24/20 83/32/20 84/130/20
f 82/131/87 13/132/87 116/132/87
f 79/15/14 81/24/14 82/131/14
f 78/105/116 80/133/116 8/21/116
f 77/16/117 79/15/117 80/133/117
f 109/125/118 111/124/118 112/65/118
f 92/124/91 40/65/91 112/65/91
f 34/134/119 110/134/119 112/65/119
f 90/127/93 109/127/93 110/55/93
f 114/21/120 113/133/120 115/131/120
f 13/132/121 8/21/121 114/21/121
f 82/131/122 115/131/122 113/133/122
f 80/133/97 113/133/97 114/21/97
f 67/114/81 68/140/81 118/111/81
f 71/135/81 119/119/81 120/119/81
f 67/114/81 117/111/81 147/83/81
f 70/84/81 122/8/81 148/9/81
f 136/137/81 69/84/81 121/138/81
f 72/136/81 120/119/81 133/1/81
f 70/84/81 137/137/81 133/1/81
f 71/135/81 136/137/81 132/3/81
f 99/99/62 135/94/62 134/123/62
f 100/120/62 134/123/62 128/92/62
f 69/84/81 136/137/81 137/137/81
f 49/84/82 124/3/82 132/3/82
f 130/106/72 131/103/72 64/112/72
f 4/6/71 123/93/71 130/106/71
f 131/103/67 127/93/67 54/6/67
f 58/84/62 129/3/62 135/94/62
f 60/96/61 59/121/61 128/92/61
f 51/86/3 50/96/3 123/93/3
f 48/11/2 125/4/2 124/3/2
f 122/8/1 133/1/1 129/3/1
f 68/140/81 152/113/81 148/9/81
f 151/113/81 147/83/81 121/138/81
f 97/88/64 150/98/64 149/122/64
f 98/115/64 149/122/64 143/95/64
f 72/136/98 137/137/98 160/137/98
f 44/78/80 139/83/80 147/83/80
f 76/107/72 145/110/72 146/97/72
f 50/96/75 138/85/75 145/110/75
f 75/102/65 146/97/65 142/97/65
f 55/78/64 144/9/64 150/98/64
f 57/76/63 56/116/63 143/95/63
f 46/76/57 138/85/57 141/87/57
f 44/78/56 43/77/56 140/90/56
f 148/9/4 144/9/4 55/78/4
f 159/137/81 155/135/81 156/136/81
f 157/113/81 158/113/81 154/140/81
f 67/114/99 153/114/99 154/140/99
f 136/137/100 159/137/100 160/137/100
f 151/113/101 152/113/101 158/113/101
f 71/135/102 155/135/102 159/137/102
f 68/140/103 154/140/103 158/113/103
f 71/135/104 72/136/104 156/136/104
