# Blender 3.6.5
# www.blender.org
mtllib firelfyLow3.mtl
o Icosphere
v 0.489019 0.237973 -0.031252
v 0.411468 0.138402 -0.206272
v 0.136122 0.464398 -0.219603
v 0.348562 0.282003 0.149087
v 0.126175 0.099059 -0.303521
v -0.030510 0.068773 0.211001
v 0.383557 0.002081 -0.076606
v -0.475782 0.142544 0.042700
v -0.563165 0.189043 0.038260
v -0.563339 0.265261 -0.107624
v -0.267240 0.308981 -0.128155
v -0.142751 0.052273 -0.078229
v -0.099391 0.282488 -0.288927
v -0.283008 0.283790 0.062954
v -0.501328 0.258998 0.109618
v -0.018773 0.430571 0.000845
v -0.444537 0.398839 0.011913
v -0.568010 0.316533 0.002814
v -0.526934 0.380116 -0.121095
v -0.296972 0.152451 -0.126083
v -0.446124 0.264811 -0.183122
v -0.496218 0.148637 -0.103039
vn 0.6367 0.5142 -0.5747
vn 0.4728 0.8671 0.1565
vn 0.1157 0.2194 -0.9688
vn 0.0213 0.7321 0.6809
vn 0.4213 -0.5367 0.7310
vn -0.0948 -0.9911 0.0933
vn -0.1879 -0.6436 -0.7419
vn -0.6770 0.1190 -0.7263
vn -0.2332 0.8907 -0.3903
vn -0.0865 -0.5399 -0.8373
vn 0.0141 -0.9989 -0.0437
vn -0.4707 -0.8818 0.0291
vn -0.8337 -0.4898 -0.2549
vn -0.5127 -0.3263 -0.7941
vn 0.3090 -0.0712 -0.9484
vn 0.4876 -0.7334 0.4736
vn -0.3189 -0.5238 0.7899
vn -0.9988 -0.0440 -0.0218
vn -0.5399 0.0728 -0.8386
vn -0.5516 0.8021 0.2288
vn -0.4703 0.8792 0.0771
vn 0.2352 -0.4449 0.8641
vn -0.8085 0.1289 0.5742
vn -0.9450 0.2796 -0.1698
vn 0.1242 0.5362 -0.8349
vn 0.5406 0.8271 0.1536
vn -0.0768 0.5027 0.8611
vn -0.4835 -0.5397 -0.6892
vn -0.4636 0.6262 0.6268
vn 0.1178 0.5362 0.8359
vn -0.5419 0.7999 -0.2580
vn 0.2462 0.9270 -0.2830
vn -0.5761 -0.6507 0.4946
vn -0.7155 -0.6245 0.3133
vn 0.6651 -0.4165 0.6197
vn 0.9091 -0.3694 -0.1927
vn 0.3176 -0.6869 -0.6537
vn -0.0895 -0.9485 -0.3038
vn 0.2900 0.2067 -0.9344
vt 0.181819 0.000000
vt 0.272728 0.157461
vt 0.090910 0.157461
vt 0.909091 0.000000
vt 1.000000 0.157461
vt 0.818182 0.157461
vt 0.590909 0.236191
vt 0.181819 0.314921
vt 0.954545 0.236191
vt 0.909091 0.314921
vt 0.000000 0.314921
vt 0.090910 0.472382
vt 0.545455 0.314921
vt 0.454546 0.157461
vt 0.363637 0.314921
vt 0.454546 0.472382
vt 0.727273 0.314921
vt 0.636364 0.472382
vt 0.818182 0.472382
vt 0.272728 0.472382
vt 0.636364 0.157461
vt 0.000000 0.000000
vt 0.545455 0.000000
vt 0.727273 0.000000
vt 0.363637 0.000000
s 0
usemtl 
f 1/1/1 2/2/1 3/3/1
f 1/4/2 3/5/2 4/6/2
f 13/7/3 3/5/3 5/8/3
f 4/6/4 3/5/4 16/9/4 6/10/4
f 6/11/5 7/12/5 4/6/5
f 12/13/6 7/12/6 6/11/6
f 13/7/7 12/13/7 20/13/7
f 11/14/8 13/7/8 20/13/8
f 13/7/9 11/14/9 16/9/9
f 21/15/10 20/13/10 22/16/10
f 20/13/11 8/17/11 22/18/11
f 8/17/12 9/10/12 22/19/12
f 9/11/13 10/8/13 22/12/13
f 10/8/14 21/15/14 22/20/14
f 11/14/15 20/13/15 21/15/15
f 14/21/16 8/17/16 20/13/16
f 15/6/17 9/10/17 8/17/17
f 18/3/18 10/8/18 9/11/18
f 19/2/19 21/15/19 10/8/19
f 17/1/20 19/2/20 18/3/20
f 11/14/21 14/21/21 16/22/21
f 14/21/22 15/6/22 8/17/22
f 15/6/23 18/5/23 9/10/23
f 18/3/24 19/2/24 10/8/24
f 19/2/25 11/14/25 21/15/25
f 17/23/26 14/21/26 11/14/26
f 16/22/27 14/21/27 6/11/27
f 13/7/28 5/8/28 12/13/28
f 17/4/29 18/5/29 15/6/29
f 17/24/30 15/6/30 14/21/30
f 3/5/31 13/7/31 16/9/31
f 19/2/32 17/25/32 11/14/32
f 14/21/33 20/13/33 12/13/33
f 6/11/34 14/21/34 12/13/34
f 1/4/35 4/6/35 7/12/35
f 2/2/36 1/4/36 7/12/36
f 5/8/37 2/2/37 7/12/37
f 5/8/38 7/12/38 12/13/38
f 3/5/39 2/2/39 5/8/39
